<svg xmlns="http://www.w3.org/2000/svg" xmlns:xlink="http://www.w3.org/1999/xlink" version="1.1" x="0px" y="0px" viewBox="0 0 68 85" enable-background="new 0 0 68 68" xml:space="preserve"><g><rect x="53.9" y="30.2" width="6.5" height="27.3"/><path d="M61.4,26.8H53c0.1,1.4-0.3,2.4,0.4,2.4H61c0.2,0,0.4-0.2,0.4-0.4V26.8z"/><path d="M45.7,26.8h-8.3v2c0,0.2,0.2,0.4,0.4,0.4h7.5C46,29.2,45.6,28.2,45.7,26.8z"/><path d="M53,59v2h8.3v-2c0-0.2-0.2-0.4-0.4-0.4h-7.5C53.2,58.6,53,58.8,53,59z"/><path d="M33.7,8.1L12.9,20.7h41.5L33.7,8.1z M33.7,19.4c-2.3,0-4.1-1.9-4.1-4.1c0-2.3,1.9-4.1,4.1-4.1c2.3,0,4.1,1.9,4.1,4.1   C37.9,17.6,36,19.4,33.7,19.4z"/><path d="M65.2,25.8v-4.7l-31.5-19l-31.5,19v4.7C65.2,25.8,61.3,25.8,65.2,25.8z M10.8,20.7L33.5,7.1C33.6,7,33.8,7,34,7.1   l22.6,13.6c0.2,0.1,0.3,0.4,0.2,0.6c-0.1,0.2-0.3,0.4-0.5,0.4H11.1c-0.2,0-0.4-0.2-0.5-0.4C10.5,21.1,10.6,20.9,10.8,20.7z"/><path d="M33.7,12.2c-1.7,0-3.1,1.4-3.1,3.1c0,1.7,1.4,3.1,3.1,3.1c1.7,0,3.1-1.4,3.1-3.1C36.8,13.6,35.4,12.2,33.7,12.2z"/><rect x="38.3" y="30.2" width="6.5" height="27.3"/><path d="M37.4,61h8.3v-2c0-0.2-0.2-0.4-0.4-0.4h-7.5c-0.2,0-0.4,0.2-0.4,0.4V61z"/><rect x="7.1" y="30.2" width="6.5" height="27.3"/><path d="M6.2,61h8.3v-2c0-0.2-0.2-0.4-0.4-0.4H6.6c-0.2,0-0.4,0.2-0.4,0.4V61z"/><path d="M65.6,62H2.4C2.2,62,2,62.2,2,62.4v3.1c0,0.2,0.2,0.4,0.4,0.4h63.2c0.2,0,0.4-0.2,0.4-0.4v-3.1C66,62.2,65.8,62,65.6,62z"/><path d="M14.5,28.8v-2H6.2v2c0,0.2,0.2,0.4,0.4,0.4h7.5C14.3,29.2,14.5,29,14.5,28.8z"/><path d="M21.8,59v2h8.3v-2c0-0.2-0.2-0.4-0.4-0.4h-7.5C22,58.6,21.8,58.8,21.8,59z"/><rect x="22.7" y="30.2" width="6.5" height="27.3"/><path d="M30.1,26.8h-8.3v2c0,0.2,0.2,0.4,0.4,0.4h7.5c0.2,0,0.4-0.2,0.4-0.4V26.8z"/></g></svg>
