<svg xmlns="http://www.w3.org/2000/svg" viewBox="0 0 64 80" x="0px" y="0px"><g data-name="Book"><path d="M7,50.105a6.988,6.988,0,0,1,4-2.025V36.1A5.009,5.009,0,0,0,7,41Z"/><rect x="13" y="4" width="2" height="44"/><path d="M47.08,44H52a1,1,0,0,0,1-1V38.08A7,7,0,0,0,47.08,44Z"/><path d="M26.92,8H22a1,1,0,0,0-1,1v4.92A7,7,0,0,0,26.92,8Z"/><path d="M21,38.08V43a1,1,0,0,0,1,1h4.92A7,7,0,0,0,21,38.08Z"/><path d="M57,50H12a5,5,0,0,0,0,10H57V58H13a3,3,0,0,1,0-6H57Z"/><path d="M7,36.11a6.98,6.98,0,0,1,4-2.03V19.1A5.009,5.009,0,0,0,7,24Z"/><path d="M12,55a1,1,0,0,0,1,1H57V54H13A1,1,0,0,0,12,55Z"/><path d="M7,19.11a6.98,6.98,0,0,1,4-2.03V4.1A5.009,5.009,0,0,0,7,9Z"/><path d="M52,8H47.08A7,7,0,0,0,53,13.92V9A1,1,0,0,0,52,8Z"/><path d="M57,4H17V48H57ZM55,43a3,3,0,0,1-3,3H22a3,3,0,0,1-3-3V9a3,3,0,0,1,3-3H52a3,3,0,0,1,3,3Z"/><path d="M21,36.059A9.013,9.013,0,0,1,28.941,44H45.059A9.013,9.013,0,0,1,53,36.059V33H21Z"/><path d="M45.059,8H28.941A9.013,9.013,0,0,1,21,15.941V19H53V15.941A9.013,9.013,0,0,1,45.059,8Z"/><path d="M21,31H53V21H21Zm11-8H42v2H32Zm-2,4H44v2H30Z"/></g></svg>
